<svg width="1080" height="1080" viewBox="0 0 1080 1080" fill="none" xmlns="http://www.w3.org/2000/svg">
<path opacity="0.999" d="M540 1080C838.234 1080 1080 838.234 1080 540C1080 241.766 838.234 0 540 0C241.766 0 0 241.766 0 540C0 838.234 241.766 1080 540 1080Z" fill="#00222B"/>
<g opacity="0.999" filter="url(#filter0_f_23_1323)">
<path d="M652.044 481.199C663.129 482.044 655.147 507.032 669.829 510.98C684.511 514.928 675.338 491.551 677.748 477.85C680.158 464.149 690.595 489.175 691.388 499.809C691.924 511.455 689.105 523.172 679.429 527.966C658.814 537.238 644.688 515.502 641.796 500.753C640.556 494.518 640.959 480.354 652.044 481.199Z" fill="#FFC500"/>
</g>
<g filter="url(#filter1_f_23_1323)">
<path d="M406.481 473.992C417.395 478.455 401.485 509.276 415.036 517.881C428.587 526.487 431.51 501.814 435.236 492.534C445.068 477.411 446.307 508.805 444.505 516.239C442.801 522.442 439.134 528.38 434.286 532.668C430.827 535.726 426.306 538.043 421.69 538.535C415.71 539.172 409.032 537.951 404.104 534.545C390.312 522.992 388.924 502.887 390.796 487.605C391.536 481.257 395.566 469.529 406.481 473.992Z" fill="#FFC500"/>
</g>
<path d="M333.258 779.237C325.584 788.107 273.877 818.518 240.945 832.719C232.119 836.524 222.754 842.185 213.251 840.746C206.281 839.69 199.668 834.859 195.592 829.106C191.126 822.806 189.883 814.352 189.973 806.63C190.427 767.231 218.377 731.939 221.279 692.644C221.606 688.209 222.245 683.028 219.673 679.399C213.204 670.271 199.934 668.767 189.571 664.549C166.765 655.265 141.109 653.166 119.333 641.671C110.222 636.862 98.7671 632.336 94.8503 622.808C92.9512 618.188 94.8594 612.536 96.8571 607.957C101.152 598.113 109.462 590.388 117.326 583.073C138.69 563.202 170.569 555.306 188.768 532.502C191.388 529.22 193.499 525.06 193.585 520.862C193.672 516.588 191.091 512.64 189.17 508.821C173.061 476.8 146.288 450.933 130.17 418.917C127.029 412.679 122.685 406.229 122.945 399.25C123.247 391.173 126.637 382.186 132.979 377.175C137.9 373.288 145.189 373.096 151.442 373.563C196.763 376.946 237.422 403.101 279.877 419.318C299.72 426.898 338.877 443.4 338.877 443.4C338.877 443.4 334.441 457.412 334.061 464.672C333.524 474.897 334.713 485.374 337.673 495.175C345.015 521.109 362.891 538.968 385.435 549.359C411.006 560.36 448.583 557.733 464.302 539.124C469.122 532.944 479.37 522.429 477.747 531.498C457.46 570.635 407.408 575.512 375.401 563.005C343.393 550.498 314.011 490.46 300.748 500.393C297.487 503.366 297.692 508.826 297.537 513.236C297.131 524.777 299.395 536.581 303.557 547.352C308.347 559.747 314.148 573.162 324.829 581.066C334.639 588.325 348.081 588.89 360.149 590.699C372.857 592.603 385.849 592.602 398.68 591.903C420.107 592.852 455.593 570.477 449.652 585.481C446.212 592.925 436.564 595.554 429.183 599.127C420.963 604.917 391.194 609.261 397.666 616.082C404.138 622.902 440.379 609.862 451.659 601.134C458.296 595.953 464.363 589.88 469.319 583.073C476.082 573.784 479.982 562.717 485.373 552.57C490.288 543.319 490.719 529.278 500.223 524.876C501.962 524.071 504.717 524.53 505.842 526.08C508.135 529.235 505.763 533.984 504.638 537.719C498.895 556.801 486.646 573.293 476.945 590.699C470.432 602.383 454.807 611.943 456.475 625.216C456.829 628.032 459.7 630.748 462.496 631.236C464.972 631.668 467.472 629.731 469.319 628.025C486.75 611.924 492.297 586.484 504.638 566.216C511.934 554.235 517.062 540.249 527.516 530.896C531.752 527.106 537.128 523.978 542.768 523.27C549.017 522.486 556.13 523.589 561.23 527.284C587.115 546.034 592.375 583.165 609.795 609.964C615.804 619.209 625.088 626.569 629.06 636.855C632.151 644.861 632.655 653.871 632.022 662.429C631.458 670.05 626.062 684.566 626.062 684.566C586.192 623.01 520.624 637.829 500.337 645.401C480.05 652.973 465.305 675.554 456.915 693.932C445.082 728.425 439.79 765.297 436.633 791.528C433.475 817.759 445.121 867.858 429.102 868.187C413.083 868.517 383.693 859.497 378.897 829.601C374.101 799.704 419.345 748.638 432.508 715.784C435.082 709.041 436.905 701.704 436.481 694.499C435.939 685.299 432.315 676.376 428.251 668.105C415.369 640.351 378.697 607.849 351.34 605.668C336.949 605.646 329.611 615.306 327.216 627.805C321.834 671.756 336.844 692.374 368.368 718.339C398.021 744.543 357.263 726.642 338.852 712.379C300.019 686.587 319.184 661.557 311.607 630.359C310.351 625.614 307.654 621.295 304.796 617.304C299.77 610.287 291.266 606.029 286.916 598.573C283.628 592.938 281.852 586.338 281.24 579.842C280.57 572.738 281.296 565.34 283.51 558.557C284.799 554.608 289.754 547.772 289.754 547.772C289.754 547.772 280.296 533.879 278.118 525.919C275.894 517.79 275.451 508.949 276.983 500.661C279.008 489.704 290.322 470.01 290.322 470.01C262.268 467.634 191.445 446.656 181.625 454.685C179.201 456.852 179.482 461.164 180.206 464.334C182.798 475.692 193.236 483.649 199.788 493.282C212.229 511.572 226.087 528.96 237.25 548.056C241.136 554.704 245.645 561.293 247.467 568.774C248.609 573.462 249.515 578.756 247.751 583.248C246.357 586.798 243.058 589.488 239.805 591.478C212.055 608.454 172.291 600.121 146.433 619.859C144.034 621.69 141.608 624.503 141.608 627.521C141.608 630.54 144.052 633.329 146.433 635.184C171.234 654.511 210.191 646.624 236.115 664.416C242.048 668.487 246.835 674.577 249.738 681.16C252.593 687.636 253.259 695.096 252.86 702.162C252.362 710.959 248.785 719.328 246.048 727.704C238.105 752.018 224.432 774.406 218.236 799.223C217.266 803.105 215.092 807.532 216.816 811.143C218.502 814.672 222.879 816.825 226.75 817.386C231.611 818.092 236.368 815.21 240.94 813.413C265.509 803.173 312.276 773.508 328.635 771.41C331.286 772.304 335.088 777.122 333.258 779.237Z" fill="#00AA44"/>
<path d="M512.54 496.404C430.152 470.733 347.269 439.521 276.415 390.261C261.146 379.645 245.764 367.062 237.25 350.529C231.711 339.771 228.284 326.559 231.007 314.769C236.362 294.773 254.613 295.022 270.739 298.876C301.237 309.927 329.929 330.126 353.042 348.826C390.106 383.611 380.041 397.992 409.803 371.53C415.096 367.323 422.347 364.997 429.102 365.286C436.896 365.62 444.3 369.866 450.671 374.368C460.077 381.015 466.565 391.066 473.943 399.91C489.162 427.448 519.626 450.482 500.621 412.965C493.537 398.547 484.96 384.763 475.078 372.098C466.353 360.915 458.086 348.107 445.563 341.447C438.779 337.839 430.453 336.31 422.858 337.474C416.752 338.409 411.668 342.765 406.398 345.988C402.232 348.535 399.339 354.965 394.478 354.502C378.358 352.966 373.729 329.305 360.989 319.31C344.519 306.389 307.575 297.281 306.499 288.092C305.486 279.441 326.803 257.562 341.123 246.656C370.559 224.238 406.655 211.105 442.157 200.68C476.277 190.661 521.04 186.736 556.556 188.531C623.082 191.893 707.173 216.986 754.895 254.345C789.775 281.651 774.618 270.904 742.422 251.765C683.792 216.912 620.073 199.649 556.853 197.685C522.06 196.604 478.64 202.533 444.995 211.465C411.016 220.484 374.729 236.078 361.921 254.015C347.888 268.379 345.976 298.96 358.719 298.309C394.135 264.508 545.934 188.501 559.084 246.656C568.106 316.044 476.872 412.046 540.921 477.105C561.207 490.847 590.347 477.95 637.982 456.104C685.617 434.257 738.963 412.587 768.248 395.653C797.532 378.72 805.106 375.03 808.832 366.422C811.763 359.647 811.301 351.012 808.264 344.285C805.29 337.696 799.46 330.947 792.371 329.527C777.345 326.517 762.593 337.914 749.233 345.42C729.86 356.304 717.267 390.689 697.013 386.855C676.759 383.022 672.746 364 649.334 370.962C622.512 383.098 576.394 448.263 578.099 431.697C592.182 400.441 632.757 341.695 670.903 344.285C683.937 346.594 693.865 350.496 699.283 362.448C699.283 362.448 722.747 332.815 737.313 321.013C752.339 308.838 767.533 296.914 787.263 291.497C806.992 286.08 838.136 280.696 853.105 301.714C868.074 322.733 861.563 343.907 840.618 364.719C819.673 385.531 776.757 405.965 698.432 440.211C685.181 445.948 575.279 494.28 561.355 498.107C544.781 503.4 527.731 501.088 512.54 496.404Z" fill="#00AA44"/>
<path d="M478.192 701.575C475.423 701.96 471.971 702.586 470.529 704.981C469.111 707.337 470.017 710.682 471.097 713.211C474.96 722.265 482.821 729.53 490.963 735.064C509.031 745.273 530.895 749.445 549.994 748.403C563.422 747.583 577.054 745.131 589.443 739.888C602.044 734.044 616.632 723.642 617.256 709.805C616.087 694.371 600.048 704.355 591.713 705.548C579.564 706.981 572.237 709.067 539.851 708.704C507.465 708.341 495.179 703.796 478.192 701.575Z" fill="#00AA44"/>
<path d="M774.208 436.805C779.062 442.856 789.817 438.013 797.48 436.805C835.024 430.459 909.562 388.603 916.677 419.777C917.601 424.973 914.716 430.223 912.704 435.102C900.26 465.282 870.795 487.898 863.322 519.676C862.02 525.213 862.397 531.402 864.457 536.704C866.652 542.35 871.421 546.719 875.81 550.894C896.43 570.511 929.095 577.281 945.058 600.844C947.683 604.719 949.713 609.956 948.463 614.466C926.9 645.979 876.367 643.557 850.835 662.713C846.591 666.07 842.879 670.628 841.185 675.768C839.35 681.339 840.303 687.565 841.185 693.364C847.118 732.351 873.819 766.965 876.377 806.318C876.664 810.726 875.837 815.309 874.107 819.373C866.075 838.737 843.59 821.401 831.536 815.967C812.77 807.77 752.544 767.336 766.829 790.425C773.216 799.916 785.249 804.097 795.209 809.724C815.701 821.3 836.022 836.117 859.349 839.239C865.052 840.003 871.351 839.203 876.377 836.401C881.647 833.463 885.657 828.204 888.297 822.779C891.415 816.372 892.646 808.892 892.27 801.777C890.23 763.103 857.961 729.245 858.781 690.526C858.879 685.92 860.3 680.948 863.322 677.471C896.362 653.86 944.157 653.478 972.871 634.9C978.533 631.073 985.061 626.258 986.493 619.575C987.416 603.603 974.06 591.423 963.789 582.68C942.621 562.539 878.197 532.412 887.162 515.703C906.826 480.338 941.688 446.835 955.275 412.965C957.538 407.07 959.224 400.451 958.113 394.234C957.01 388.066 953.925 381.688 949.031 377.774C944.261 373.959 937.54 372.472 931.435 372.665C881.786 374.237 836.617 402.98 791.236 423.182C785.745 425.627 778.975 426.908 775.343 431.697C774.289 433.086 773.116 435.444 774.208 436.805Z" fill="#00AA44"/>
<path d="M406.305 480.526C415.522 484.342 402.087 510.695 413.53 518.053C424.973 525.411 427.441 504.314 430.588 496.379C438.89 483.449 439.936 510.292 438.414 516.648C436.976 521.952 433.879 527.029 429.785 530.695C426.865 533.311 423.046 535.292 419.149 535.713C414.099 536.257 408.46 535.213 404.299 532.301C392.652 522.422 391.48 505.232 393.06 492.165C393.685 486.737 397.089 476.71 406.305 480.526Z" fill="#FFC500"/>
<path d="M653.514 487.989C663.463 488.714 656.299 510.15 669.475 513.537C682.652 516.924 674.42 496.87 676.583 485.116C678.746 473.362 688.113 494.831 688.825 503.953C689.305 513.945 686.775 523.997 678.092 528.108C659.589 536.063 646.912 517.416 644.317 504.763C643.203 499.415 643.565 487.264 653.514 487.989Z" fill="#FFC500"/>
<path d="M794.42 477.114C794.42 477.114 812.187 505.833 813.685 522.066C814.92 535.447 812.053 550.053 804.855 561.4C801.587 566.552 795.702 570.592 790.406 572.638C792.589 579.655 795.115 587.695 793.617 595.114C792.073 602.76 787.382 609.971 781.577 615.182C775.874 620.299 760.706 624.814 760.706 624.814C760.706 624.814 761.184 659.29 758.298 676.188C756.156 691.956 747.003 703.72 736.424 715.923C736.424 715.923 757.466 731.547 766.325 736.392C776.196 741.791 785.742 748.923 796.828 750.841C802.128 751.758 808.705 752.623 812.883 749.236C817.681 745.346 818.226 737.747 818.502 731.576C819.976 707.911 798.053 673.222 805.658 653.712C807.587 649.171 812.644 646.581 816.896 644.08C836.818 632.362 864.337 635.003 881.916 619.998C890.747 611.526 889.965 603.285 883.522 594.311C872.348 578.78 851.782 571.571 840.978 555.78C835.478 547.742 830.754 538.226 830.542 528.488C830.322 518.337 835.886 508.794 840.175 499.59C850.269 483.759 876.181 444.803 854.624 450.624C838.783 455.231 816.329 468.431 794.42 477.114Z" fill="#217844"/>
<path d="M773.64 514C753.798 524.847 753.838 546.247 726.529 562.814C699.219 579.381 638.017 580.725 616.992 557.304C591.812 528.317 594.541 536.188 603.049 556.935C617.562 581.613 630.498 589.464 655.578 595.735C674.163 600.216 694.254 601.635 712.906 597.438C731.976 593.148 750.859 584.122 765.126 570.761C782.99 551.316 798.131 501.423 773.64 514Z" fill="#217844"/>
<path d="M643.453 722.112C641.124 729.272 641.506 773.196 641.96 799.427C642.414 825.657 635.5 868.881 651.519 869.21C667.538 869.54 696.928 860.52 701.724 830.624C704.122 815.675 674.021 865.717 657.898 855.906C644.005 847.452 653.992 777.642 652.651 756.286C651.31 734.93 646.808 711.797 643.453 722.112Z" fill="#00AA44"/>
<defs>
<filter id="filter0_f_23_1323" x="610.037" y="442.574" width="112.688" height="118.893" filterUnits="userSpaceOnUse" color-interpolation-filters="sRGB">
<feFlood flood-opacity="0" result="BackgroundImageFix"/>
<feBlend mode="normal" in="SourceGraphic" in2="BackgroundImageFix" result="shape"/>
<feGaussianBlur stdDeviation="15.6371" result="effect1_foregroundBlur_23_1323"/>
</filter>
<filter id="filter1_f_23_1323" x="347.622" y="430.495" width="140.087" height="150.711" filterUnits="userSpaceOnUse" color-interpolation-filters="sRGB">
<feFlood flood-opacity="0" result="BackgroundImageFix"/>
<feBlend mode="normal" in="SourceGraphic" in2="BackgroundImageFix" result="shape"/>
<feGaussianBlur stdDeviation="21.2544" result="effect1_foregroundBlur_23_1323"/>
</filter>
</defs>
</svg>
